<?xml version="1.0" encoding="utf-8"?>
<!-- Generator: Adobe Illustrator 24.3.0, SVG Export Plug-In . SVG Version: 6.00 Build 0)  -->
<svg version="1.1" id="Layer_1" xmlns="http://www.w3.org/2000/svg" xmlns:xlink="http://www.w3.org/1999/xlink" x="0px" y="0px"
	 viewBox="0 0 792 612" style="enable-background:new 0 0 792 612;" xml:space="preserve">
<style type="text/css">
	.st0{fill:#FFFFFF;}
</style>
<g>
	<g>
		<path class="st0" d="M165.1,418.4c5.1,0,9.2,2.1,12.2,6c0.6,0.8,0.4,1.8-0.3,2.4l-1.6,1.4c-1.3,1.2-1.7,0.3-2.5-0.3
			c-1.7-2-4.5-3.6-7.9-3.6c-6.4,0-11.4,5.3-11.4,12.2s4.9,12.3,11.3,12.3c5.1,0,7.1-2.6,9.1-4.5c1-1,1.6-0.9,2.6-0.2l0.9,0.7
			c0.9,0.6,1.1,1.5,0.6,2.4c-2.6,4.1-7.3,7.2-13.1,7.2c-9.5,0-17.5-7.6-17.5-17.9C147.5,426.3,155.8,418.4,165.1,418.4z"/>
		<path class="st0" d="M271,420.8c0-0.9,0.8-1.6,1.6-1.6h1.6c0.7,0,1.3,0.4,1.5,1.2l0.7,2.5c0,0,3.2-4.5,10.3-4.5
			c2.6,0,6.8,0.4,6,2.8l-1,2.9c-0.4,1.1-1.2,1.1-2.1,0.8c-0.8-0.3-2.1-0.7-3.3-0.7c-6.5,0-9.3,4.8-9.3,4.8v22.8
			c0,0.9-0.8,1.6-1.6,1.6h-2.7c-0.9,0-1.6-0.8-1.6-1.6V420.8z"/>
		<path class="st0" d="M332.6,418.4c9,0,15.5,6.7,15.5,15.7c0,0.6-0.1,1.7-0.2,2.3c-0.1,0.9-0.8,1.5-1.5,1.5h-24.6
			c0.3,5.7,5.4,11.1,11.5,11.1c3.6,0,6.5-1.4,8.5-2.6c1.2-0.7,1.7-1.1,2.4-0.2c0.5,0.7,0.9,1.3,1.5,2c0.6,0.8,0.9,1.3-0.3,2.2
			c-2.1,1.6-6.7,3.9-12.6,3.9c-10.4,0-16.8-8.1-16.8-18C315.8,426.7,322.2,418.4,332.6,418.4z M342.2,433c-0.3-5-4.4-9.4-9.6-9.4
			c-5.7,0-10.2,4.1-10.8,9.4H342.2z"/>
		<path class="st0" d="M373.2,421.2c-0.3-1.2,0-2,1.3-2h2.7c0.8,0,1.4,0.4,1.5,0.9l6.2,22.6h0.1l9.7-23.5c0.2-0.4,0.7-0.9,1.5-0.9
			h0.4c0.8,0,1.3,0.4,1.5,0.9l9.6,23.6h0.1l6.2-22.7c0.2-0.5,0.8-0.9,1.5-0.9h2.7c1.3,0,1.6,0.8,1.3,2l-9.3,32.3
			c-0.2,0.5-0.8,0.9-1.5,0.9H408c-0.8,0-1.3-0.4-1.5-0.9l-10.4-25.7L386,453.5c-0.2,0.4-0.7,0.9-1.5,0.9h-0.4
			c-0.8,0-1.3-0.3-1.5-0.9L373.2,421.2z"/>
		<path class="st0" d="M461.6,418.4c9.5,0,17,8.2,17,17.9c0,9.8-7.5,18.1-17,18.1c-9.5,0-17-8.2-17-18.1
			C444.6,426.6,452.1,418.4,461.6,418.4z M461.6,448.7c6.2,0,11.1-5.6,11.1-12.5c0-6.8-4.9-12.2-11.1-12.2
			c-6.2,0-11.1,5.5-11.1,12.2C450.5,443.2,455.4,448.7,461.6,448.7z"/>
		<path class="st0" d="M507.3,420.8c0-0.9,0.8-1.6,1.6-1.6h1.6c0.7,0,1.3,0.4,1.5,1.2l0.7,2.5c0,0,3.2-4.5,10.3-4.5
			c2.6,0,6.8,0.4,6,2.8l-1,2.9c-0.4,1.1-1.2,1.1-2.1,0.8c-0.8-0.3-2.1-0.7-3.3-0.7c-6.5,0-9.3,4.8-9.3,4.8v22.8
			c0,0.9-0.8,1.6-1.6,1.6H509c-0.9,0-1.6-0.8-1.6-1.6V420.8z"/>
		<path class="st0" d="M555,395.2c0-0.9,0.8-1.6,1.6-1.6h2.7c0.9,0,1.6,0.8,1.6,1.6v37.1l14.5-12c0.7-0.6,1.4-1,2.1-1h4.6
			c1.5,0,1.4,1.6,0.8,2.1l-16.3,13l18.9,16.9c0.7,0.6,0.6,2.1-0.9,2.1H580c-0.8,0-1.4-0.4-1.7-0.7l-17.4-16.5v15.6
			c0,0.9-0.8,1.6-1.6,1.6h-2.7c-0.9,0-1.6-0.8-1.6-1.6V395.2z"/>
		<path class="st0" d="M610.2,448.7c0.3-0.5,0.9-1.7,1.2-2.1c0.4-0.7,1.4-0.9,2.3-0.3c0,0,3.7,3,8,3c3.5,0,5.6-1.8,5.6-4.1
			c0-3-2.6-4.4-7.5-6.8c-4.5-2.2-9.8-5.2-9.8-11c0-3.6,2.9-8.9,10.9-8.9c4.4,0,7.9,1.5,9.5,2.7c0.8,0.5,1,1.7,0.5,2.7l-0.7,1.4
			c-0.5,0.9-1.7,1.2-2.5,0.8c0,0-3.7-2.1-6.8-2.1c-3.9,0-4.9,2-4.9,3.4c0,2.8,2.8,4.1,6.3,5.8c5.9,2.8,11.2,5.5,11.2,11.6
			c0,5-4.8,9.7-11.8,9.7c-5.7,0-9.2-2.4-11.1-3.9C610.2,450.1,609.9,449.3,610.2,448.7z"/>
	</g>
	<path class="st0" d="M239.4,435.4c0-0.3,0-0.5,0-0.8v-15.4c0-0.9-0.8-1.7-1.6-1.7h-2.7c-0.9,0-1.6,0.8-1.6,1.7v2.7
		c-3-2.7-6.8-4.4-11.1-4.4c-9.5,0-17,8.2-17,17.9c0,9.8,7.5,18.1,17,18.1c4.3,0,8.1-1.7,11.1-4.4v2.7c0,0.9,0.8,1.7,1.6,1.7h2.7
		c0.9,0,1.6-0.8,1.6-1.7v-15.6C239.3,435.9,239.4,435.7,239.4,435.4z M222.3,447.9c-6.2,0-11.1-5.6-11.1-12.5
		c0-6.8,4.9-12.2,11.1-12.2c6,0,10.7,5,11.1,11.4v1.7C233,442.8,228.3,447.9,222.3,447.9z"/>
</g>
<g>
	<g>
		<path class="st0" d="M388.1,386c-77.6,0-140.7-63.1-140.7-140.7s63.1-140.7,140.7-140.7s140.7,63.1,140.7,140.7
			S465.7,386,388.1,386z M388.1,112.3c-73.3,0-133,59.7-133,133c0,73.3,59.7,133,133,133c73.3,0,133-59.7,133-133
			C521.1,172,461.4,112.3,388.1,112.3z"/>
	</g>
	<path class="st0" d="M480.3,207.6h-9.5c-1.1,0-2.3,0.9-2.6,1.8l-17.2,58.1h-0.6l-23.1-58.5c-0.3-0.8-1.3-1.4-2.4-1.4h-1.1h-1.1
		c-1.1,0-2.1,0.6-2.4,1.4l-23.1,58.5h-0.6l-17.2-58.1c-0.3-0.9-1.4-1.8-2.6-1.8h-9.5c-2,0-3.1,1.3-2.6,3l1.6,5.3
		c-7.9-6.1-16.5-9.6-28-9.6c-25.3,0-45.7,20.4-45.7,45.7s20.4,45.5,45.7,45.5c11.3,0,22.2-3.9,30.8-12.3c0.9-0.9,1.1-2.5,0.1-3.4
		l-5.8-5.7c-0.8-0.6-1.9-0.8-3,0.1c-6.1,4.7-12.5,8.4-21.8,8.4c-18.1,0-31.9-15.1-31.9-32.8s13.7-32.9,31.8-32.9
		c9.9,0,31.7,7.5,38.9,33.1c0,0,0,0,0,0l12.4,40.3c0.5,1.6,1.2,3.2,2.6,3.2l6.2,0c1.3,0,1.9-1.4,2.5-3l22.2-57.7h0.4h0.4l22.2,57.7
		c0.6,1.6,1.2,3,2.5,3l6.2,0c1.4,0,2.1-1.6,2.6-3.2l25-81.6C483.4,208.8,482.3,207.6,480.3,207.6z"/>
</g>
</svg>
