<?xml version="1.0" encoding="UTF-8" standalone="no"?>
<!-- Generator: Adobe Illustrator 24.3.0, SVG Export Plug-In . SVG Version: 6.00 Build 0)  -->

<svg
   version="1.1"
   id="Layer_1"
   x="0px"
   y="0px"
   viewBox="0 0 299.28818 300.81359"
   xml:space="preserve"
   sodipodi:docname="CWlogoWHT.svg"
   width="299.28818"
   height="300.8136"
   inkscape:version="1.2.2 (b0a8486, 2022-12-01)"
   xmlns:inkscape="http://www.inkscape.org/namespaces/inkscape"
   xmlns:sodipodi="http://sodipodi.sourceforge.net/DTD/sodipodi-0.dtd"
   xmlns="http://www.w3.org/2000/svg"
   xmlns:svg="http://www.w3.org/2000/svg"><defs
   id="defs37" /><sodipodi:namedview
   id="namedview35"
   pagecolor="#ffffff"
   bordercolor="#000000"
   borderopacity="0.25"
   inkscape:showpageshadow="2"
   inkscape:pageopacity="0.0"
   inkscape:pagecheckerboard="0"
   inkscape:deskcolor="#d1d1d1"
   showgrid="false"
   inkscape:zoom="0.38562092"
   inkscape:cx="280.0678"
   inkscape:cy="97.245763"
   inkscape:window-width="1440"
   inkscape:window-height="709"
   inkscape:window-x="0"
   inkscape:window-y="23"
   inkscape:window-maximized="0"
   inkscape:current-layer="Layer_1" />
<style
   type="text/css"
   id="style2">
	.st0{fill:#FFFFFF;}
</style>

<g
   id="g32"
   transform="translate(-238.57627,-98.542373)">
	<g
   id="g28">
		<path
   class="st0"
   d="m 388.1,386 c -77.6,0 -140.7,-63.1 -140.7,-140.7 0,-77.6 63.1,-140.7 140.7,-140.7 77.6,0 140.7,63.1 140.7,140.7 0,77.6 -63.1,140.7 -140.7,140.7 z m 0,-273.7 c -73.3,0 -133,59.7 -133,133 0,73.3 59.7,133 133,133 73.3,0 133,-59.7 133,-133 0,-73.3 -59.7,-133 -133,-133 z"
   id="path26" />
	</g>
	<path
   class="st0"
   d="m 480.3,207.6 h -9.5 c -1.1,0 -2.3,0.9 -2.6,1.8 L 451,267.5 h -0.6 L 427.3,209 c -0.3,-0.8 -1.3,-1.4 -2.4,-1.4 h -1.1 -1.1 c -1.1,0 -2.1,0.6 -2.4,1.4 l -23.1,58.5 h -0.6 l -17.2,-58.1 c -0.3,-0.9 -1.4,-1.8 -2.6,-1.8 h -9.5 c -2,0 -3.1,1.3 -2.6,3 l 1.6,5.3 c -7.9,-6.1 -16.5,-9.6 -28,-9.6 -25.3,0 -45.7,20.4 -45.7,45.7 0,25.3 20.4,45.5 45.7,45.5 11.3,0 22.2,-3.9 30.8,-12.3 0.9,-0.9 1.1,-2.5 0.1,-3.4 l -5.8,-5.7 c -0.8,-0.6 -1.9,-0.8 -3,0.1 -6.1,4.7 -12.5,8.4 -21.8,8.4 -18.1,0 -31.9,-15.1 -31.9,-32.8 0,-17.7 13.7,-32.9 31.8,-32.9 9.9,0 31.7,7.5 38.9,33.1 0,0 0,0 0,0 l 12.4,40.3 c 0.5,1.6 1.2,3.2 2.6,3.2 h 6.2 c 1.3,0 1.9,-1.4 2.5,-3 l 22.2,-57.7 h 0.4 0.4 l 22.2,57.7 c 0.6,1.6 1.2,3 2.5,3 h 6.2 c 1.4,0 2.1,-1.6 2.6,-3.2 l 25,-81.6 c 0.8,-1.9 -0.3,-3.1 -2.3,-3.1 z"
   id="path30" />
</g>
</svg>
